<?xml version="1.0" standalone="no"?>
<!DOCTYPE svg PUBLIC "-//W3C//DTD SVG 20010904//EN"
 "http://www.w3.org/TR/2001/REC-SVG-20010904/DTD/svg10.dtd">
<svg version="1.0" xmlns="http://www.w3.org/2000/svg"
 width="512.000000pt" height="512.000000pt" viewBox="0 0 512.000000 512.000000"
 preserveAspectRatio="xMidYMid meet">

<g transform="translate(0.000000,512.000000) scale(0.100000,-0.100000)"
fill="#000000" stroke="none">
<path d="M279 5097 c-121 -41 -204 -119 -251 -234 l-23 -58 -3 -2225 c-2
-2190 -2 -2226 17 -2290 38 -123 121 -214 238 -262 l58 -23 2240 0 c1786 0
2249 3 2282 13 68 20 164 91 206 152 20 30 46 83 57 118 20 63 20 101 20 2272
0 2171 0 2209 -20 2272 -43 141 -143 237 -285 274 -41 11 -450 14 -2260 14
l-2210 -1 -66 -22z m2446 -1197 c454 -48 767 -294 871 -685 14 -54 18 -105 18
-220 0 -179 -14 -248 -79 -381 -100 -207 -315 -370 -575 -438 -144 -38 -239
-46 -537 -46 l-273 0 0 -460 0 -460 -325 0 -325 0 0 1350 0 1350 568 0 c312 0
608 -5 657 -10z"/>
<path d="M2150 3020 l0 -390 253 0 c138 0 271 5 295 10 159 37 249 146 259
313 15 240 -99 409 -302 446 -32 6 -159 11 -282 11 l-223 0 0 -390z"/>
</g>
</svg>
